<?xml version="1.0" ?><svg height="24px" version="1.1" viewBox="0 0 24 24" width="24px" xmlns="http://www.w3.org/2000/svg" xmlns:sketch="http://www.bohemiancoding.com/sketch/ns" xmlns:xlink="http://www.w3.org/1999/xlink"><title/><desc/><defs/><g fill="none" fill-rule="evenodd" id="miu" stroke="none" stroke-width="1"><g id="Artboard-1" transform="translate(-251.000000, -299.000000)"><g id="slice" transform="translate(215.000000, 119.000000)"/><path d="M267,306 L273,306 L273,317.859649 C273,319 271.888889,319 271.888889,319 L254.111111,319 C254.111111,319 253,319 253,317.859649 L253,306 L254,306 L259,306 L259,308 C259,308 259,309 260,309 L266,309 C267,309 267,308 267,308 L267,306 L267,306 Z M252.995239,303 C252.995239,303 252,303 252,304 C252.000001,305 252.995239,305 252.995239,305 L273,305 C273,305 274,305 274,304 C274,303 273,303 273,303 L252.995239,303 Z M260,308 L266,308 L266,306 L260,306 L260,308 Z" fill="#000000" id="editor-drawer-collection-archive-glyph"/></g></g></svg>