<?xml version="1.0" encoding="UTF-8" standalone="no"?>
<svg
   xmlns:dc="http://purl.org/dc/elements/1.1/"
   xmlns:cc="http://creativecommons.org/ns#"
   xmlns:rdf="http://www.w3.org/1999/02/22-rdf-syntax-ns#"
   xmlns:svg="http://www.w3.org/2000/svg"
   xmlns="http://www.w3.org/2000/svg"
   xmlns:sodipodi="http://sodipodi.sourceforge.net/DTD/sodipodi-0.dtd"
   xmlns:inkscape="http://www.inkscape.org/namespaces/inkscape"
   height="24px"
   version="1.1"
   viewBox="0 0 24 24"
   width="24px"
   id="svg3985"
   sodipodi:docname="suite_all.svg"
   inkscape:version="0.92.2 5c3e80d, 2017-08-06">
  <metadata
     id="metadata3989">
    <rdf:RDF>
      <cc:Work
         rdf:about="">
        <dc:format>image/svg+xml</dc:format>
        <dc:type
           rdf:resource="http://purl.org/dc/dcmitype/StillImage" />
        <dc:title></dc:title>
      </cc:Work>
    </rdf:RDF>
  </metadata>
  <sodipodi:namedview
     pagecolor="#ffffff"
     bordercolor="#666666"
     borderopacity="1"
     objecttolerance="10"
     gridtolerance="10"
     guidetolerance="10"
     inkscape:pageopacity="0"
     inkscape:pageshadow="2"
     inkscape:window-width="1228"
     inkscape:window-height="721"
     id="namedview3987"
     showgrid="false"
     showguides="false"
     inkscape:zoom="1.1735665"
     inkscape:cx="16.661203"
     inkscape:cy="15.24699"
     inkscape:window-x="0"
     inkscape:window-y="22"
     inkscape:window-maximized="0"
     inkscape:current-layer="Artboard-1" />
  <desc
     id="desc3977" />
  <defs
     id="defs3979" />
  <g
     id="miu"
     stroke-width="1"
     stroke="none"
     fill-rule="evenodd"
     fill="none">
    <g
       id="Artboard-1"
       transform="translate(-467.000000, -299.000000)">
      <g
         id="slice"
         transform="translate(215.000000, 119.000000)" />
      <path
         d="M 468.14049,305 C 468.0629,305 468,305.05794 468,305.12879 v 15.74242 c 0,0.0711 0.0631,0.12879 0.14049,0.12879 h 21.71902 C 489.9371,321 490,320.94206 490,320.87121 V 305.12879 C 490,305.05766 489.93689,305 489.85951,305 Z"
         id="editor-album-collection-glyph"
         style="fill:#37c837"
         inkscape:connector-curvature="0"
         sodipodi:nodetypes="sssssssss" />
      <path
         inkscape:connector-curvature="0"
         style="fill:#d40000"
         d="m 468,320.87121 c -0.0405,0.0584 0.0631,0.12879 0.14049,0.12879 h 21.71902 C 489.93711,321 490,320.9421 490,320.87121 v -15.74242 c 0,-0.0711 -0.10135,-0.1955 -0.14049,-0.12879 z"
         id="editor-album-collection-glyph-9"
         sodipodi:nodetypes="csssscc" />
      <path
         inkscape:connector-curvature="0"
         d="m 468,317.70688 v 3.16433 c 0,0.0711 0.0631,0.12879 0.14049,0.12879 h 3.74094 L 490,313.64881 l 0,-8.52002 C 490,305.05769 489.9369,305 489.85951,305 H 477.82149 Z M 470,301 v 1 h 18 v -1 z m -1,2 v 1 h 20 v -1 z"
         id="editor-album-collection-glyph-92"
         style="fill:#ffffff"
         sodipodi:nodetypes="cssccsscccccccccccc" />
    </g>
  </g>
</svg>
