<?xml version="1.0" encoding="UTF-8" standalone="no"?>
<svg
   xmlns:dc="http://purl.org/dc/elements/1.1/"
   xmlns:cc="http://creativecommons.org/ns#"
   xmlns:rdf="http://www.w3.org/1999/02/22-rdf-syntax-ns#"
   xmlns:svg="http://www.w3.org/2000/svg"
   xmlns="http://www.w3.org/2000/svg"
   xmlns:sodipodi="http://sodipodi.sourceforge.net/DTD/sodipodi-0.dtd"
   xmlns:inkscape="http://www.inkscape.org/namespaces/inkscape"
   height="24px"
   version="1.1"
   viewBox="0 0 24 24"
   width="24px"
   id="svg3985"
   sodipodi:docname="suite_unknown_success.svg"
   inkscape:version="0.92.2 5c3e80d, 2017-08-06">
  <metadata
     id="metadata3989">
    <rdf:RDF>
      <cc:Work
         rdf:about="">
        <dc:format>image/svg+xml</dc:format>
        <dc:type
           rdf:resource="http://purl.org/dc/dcmitype/StillImage" />
        <dc:title></dc:title>
      </cc:Work>
    </rdf:RDF>
  </metadata>
  <sodipodi:namedview
     pagecolor="#ffffff"
     bordercolor="#666666"
     borderopacity="1"
     objecttolerance="10"
     gridtolerance="10"
     guidetolerance="10"
     inkscape:pageopacity="0"
     inkscape:pageshadow="2"
     inkscape:window-width="1228"
     inkscape:window-height="721"
     id="namedview3987"
     showgrid="false"
     showguides="false"
     inkscape:zoom="18.089366"
     inkscape:cx="13.570091"
     inkscape:cy="9.3587847"
     inkscape:window-x="0"
     inkscape:window-y="22"
     inkscape:window-maximized="0"
     inkscape:current-layer="svg3985" />
  <desc
     id="desc3977" />
  <defs
     id="defs3979" />
  <g
     id="miu"
     stroke-width="1"
     stroke="none"
     fill-rule="evenodd"
     fill="none">
    <g
       id="Artboard-1"
       transform="translate(-467.000000, -299.000000)">
      <g
         id="slice"
         transform="translate(215.000000, 119.000000)" />
      <path
         d="M468.140488,305 C468.062898,305 468,305.057936 468,305.128791 L468,320.871209 C468,320.942338 468.06311,321 468.140488,321 L489.859512,321 C489.937102,321 490,320.942064 490,320.871209 L490,305.128791 C490,305.057662 489.93689,305 489.859512,305 L468.140488,305 Z M470,301 L470,302 L488,302 L488,301 L470,301 Z M469,303 L469,304 L489,304 L489,303 L469,303 Z"
         id="editor-album-collection-glyph"
         fill="#ffffff" />
      <path
         inkscape:connector-curvature="0"
         style="fill:#008000"
         d="m 468,320.87121 c -0.0405,0.0584 0.0631,0.12879 0.14049,0.12879 h 21.71902 C 489.93711,321 490,320.9421 490,320.87121 v -15.74242 c 0,-0.0711 -0.10135,-0.1955 -0.14049,-0.12879 z"
         id="editor-album-collection-glyph-9"
         sodipodi:nodetypes="csssscc" />
    </g>
  </g>
</svg>
