<?xml version="1.0" encoding="UTF-8" standalone="no"?>
<svg
   xmlns:dc="http://purl.org/dc/elements/1.1/"
   xmlns:cc="http://creativecommons.org/ns#"
   xmlns:rdf="http://www.w3.org/1999/02/22-rdf-syntax-ns#"
   xmlns:svg="http://www.w3.org/2000/svg"
   xmlns="http://www.w3.org/2000/svg"
   xmlns:sodipodi="http://sodipodi.sourceforge.net/DTD/sodipodi-0.dtd"
   xmlns:inkscape="http://www.inkscape.org/namespaces/inkscape"
   height="24px"
   version="1.1"
   viewBox="0 0 24 24"
   width="24px"
   id="svg5242"
   sodipodi:docname="unknown.svg"
   inkscape:version="0.92.2 5c3e80d, 2017-08-06">
  <metadata
     id="metadata5246">
    <rdf:RDF>
      <cc:Work
         rdf:about="">
        <dc:format>image/svg+xml</dc:format>
        <dc:type
           rdf:resource="http://purl.org/dc/dcmitype/StillImage" />
      </cc:Work>
    </rdf:RDF>
  </metadata>
  <sodipodi:namedview
     pagecolor="#ffffff"
     bordercolor="#666666"
     borderopacity="1"
     objecttolerance="10"
     gridtolerance="10"
     guidetolerance="10"
     inkscape:pageopacity="0"
     inkscape:pageshadow="2"
     inkscape:window-width="640"
     inkscape:window-height="480"
     id="namedview5244"
     showgrid="false"
     inkscape:zoom="9.8333333"
     inkscape:cx="10.220339"
     inkscape:cy="12"
     inkscape:window-x="0"
     inkscape:window-y="22"
     inkscape:window-maximized="0"
     inkscape:current-layer="svg5242" />
  <title
     id="title5232" />
  <desc
     id="desc5234" />
  <defs
     id="defs5236" />
  <g
     id="miu"
     style="fill:#ffffff;fill-rule:evenodd;stroke:none;stroke-width:1"
     transform="translate(-0.50847457,0.50847458)">
    <g
       id="Artboard-1"
       transform="translate(-647,-119)"
       style="fill:#ffffff">
      <g
         id="slice"
         transform="translate(215,119)"
         style="fill:#ffffff" />
      <path
         d="m 648,130.5 c 0,-6.35127 5.14873,-11.5 11.5,-11.5 6.35127,0 11.5,5.14873 11.5,11.5 0,6.35127 -5.14873,11.5 -11.5,11.5 -6.35127,0 -11.5,-5.14873 -11.5,-11.5 z m 22,0 c 0,-5.79899 -4.70101,-10.5 -10.5,-10.5 -5.79899,0 -10.5,4.70101 -10.5,10.5 0,5.79899 4.70101,10.5 10.5,10.5 5.79899,0 10.5,-4.70101 10.5,-10.5 z m -11.33173,3.875 h 1.45752 v 1.52344 h -1.45752 z m -1.5747,-8.41187 c 0.5957,-0.64209 1.41357,-0.96313 2.45361,-0.96313 0.96192,0 1.73217,0.27465 2.31079,0.82398 0.57862,0.54931 0.86792,1.25121 0.86792,2.10571 0,0.51758 -0.1062,0.9375 -0.3186,1.25976 -0.21241,0.32227 -0.64087,0.7959 -1.2854,1.4209 -0.46875,0.4541 -0.77271,0.83862 -0.91187,1.15357 -0.13916,0.31494 -0.20874,0.78002 -0.20874,1.39526 h -1.30371 c 0,-0.69825 0.083,-1.26099 0.24902,-1.68823 0.16602,-0.42725 0.52979,-0.91675 1.09131,-1.46851 l 0.58594,-0.57861 c 0.17578,-0.16602 0.31738,-0.33936 0.4248,-0.52002 0.19532,-0.31739 0.29297,-0.64697 0.29297,-0.98877 0,-0.47852 -0.14282,-0.89355 -0.42846,-1.24512 -0.28565,-0.35156 -0.75806,-0.52734 -1.41724,-0.52734 -0.81543,0 -1.37939,0.30273 -1.69189,0.9082 -0.17579,0.33692 -0.27588,0.82275 -0.3003,1.45752 h -1.30371 c 0,-1.05469 0.29785,-1.90307 0.89356,-2.54517 0,0 -0.59571,0.6421 0,0 z"
         id="circle-help-question-mark-outline-stroke"
         inkscape:connector-curvature="0"
         style="fill:#ffffff" />
    </g>
  </g>
</svg>
