<?xml version="1.0" ?><svg height="24px" version="1.1" viewBox="0 0 24 24" width="24px" xmlns="http://www.w3.org/2000/svg" xmlns:sketch="http://www.bohemiancoding.com/sketch/ns" xmlns:xlink="http://www.w3.org/1999/xlink"><title/><desc/><defs/><g fill="none" fill-rule="evenodd" id="miu" stroke="none" stroke-width="1"><g id="Artboard-1" transform="translate(-215.000000, -299.000000)"><g id="slice" transform="translate(215.000000, 119.000000)"/><path d="M216.995239,303 C216.995239,303 216,303 216,304 C216.000001,305 216.995239,305 216.995239,305 L237,305 C237,305 238,305 238,304 C238,303 237,303 237,303 L216.995239,303 Z M236,318 L218,318 L218,306 L217,306 L217,317.859649 C217,319 218.111111,319 218.111111,319 L235.888889,319 C235.888889,319 237,319 237,317.859649 L237,306 L236,306 L236,318 Z M223,308.001043 C223,308.552752 223.453036,309 223.99703,309 L230.00297,309 C230.553614,309 231,308.55734 231,308.001043 L231,306.998957 C231,306.447248 230.546964,306 230.00297,306 L223.99703,306 C223.446386,306 223,306.44266 223,306.998957 L223,308.001043 Z M224,307 L224,308 L230,308 L230,307 L224,307 Z" fill="#000000" id="editor-drawer-collection-archive-outline-stroke"/></g></g></svg>