<?xml version="1.0" ?><svg height="24px" version="1.1" viewBox="0 0 24 24" width="24px" xmlns="http://www.w3.org/2000/svg" xmlns:sketch="http://www.bohemiancoding.com/sketch/ns" xmlns:xlink="http://www.w3.org/1999/xlink"><title/><desc/><defs/><g fill="none" fill-rule="evenodd" id="miu" stroke="none" stroke-width="1"><g id="Artboard-1" transform="translate(-215.000000, -119.000000)"><g id="slice" transform="translate(215.000000, 119.000000)"/><path d="M216,130.5 C216,124.148725 221.148725,119 227.5,119 C233.851275,119 239,124.148725 239,130.5 C239,136.851275 233.851275,142 227.5,142 C221.148725,142 216,136.851275 216,130.5 Z M238,130.5 C238,124.70101 233.29899,120 227.5,120 C221.70101,120 217,124.70101 217,130.5 C217,136.29899 221.70101,141 227.5,141 C233.29899,141 238,136.29899 238,130.5 Z M232.492388,125.535534 L233.199495,126.242641 L227.542641,131.899495 L223.3,127.656854 L224.007107,126.949747 L227.542641,130.485281 L232.492388,125.535534 Z" fill="#000000" id="circle-clock-time-history-recent-outline-stroke"/></g></g></svg>