<?xml version="1.0" ?><svg height="24px" version="1.1" viewBox="0 0 24 24" width="24px" xmlns="http://www.w3.org/2000/svg" xmlns:sketch="http://www.bohemiancoding.com/sketch/ns" xmlns:xlink="http://www.w3.org/1999/xlink"><title/><desc/><defs/><g fill="none" fill-rule="evenodd" id="miu" stroke="none" stroke-width="1"><g id="Artboard-1" transform="translate(-431.000000, -299.000000)"><g id="slice" transform="translate(215.000000, 119.000000)"/><path d="M432.140488,305 C432.062898,305 432,305.057936 432,305.128791 L432,320.871209 C432,320.942338 432.06311,321 432.140488,321 L453.859512,321 C453.937102,321 454,320.942064 454,320.871209 L454,305.128791 C454,305.057662 453.93689,305 453.859512,305 L432.140488,305 Z M433,306 L433,320 L453,320 L453,306 L433,306 Z M434,301 L434,302 L452,302 L452,301 L434,301 Z M433,303 L433,304 L453,304 L453,303 L433,303 Z" fill="#000000" id="editor-album-collection-outline-stroke"/></g></g></svg>